<svg width="1251" height="625" viewBox="0 0 1251 625" fill="none" xmlns="http://www.w3.org/2000/svg">
<line x1="690.691" y1="119.874" x2="442.879" y2="595.673" stroke="#7AE8D4" stroke-opacity="0.74" stroke-width="4"/>
<circle cx="396.499" cy="247.812" r="247.812" fill="url(#paint0_linear)"/>
<circle cx="37.1718" cy="195.772" r="37.1718" fill="#7AE8D4"/>
<circle cx="701.308" cy="96.6468" r="37.1718" fill="#7AE8D4"/>
<circle cx="431.193" cy="594.749" r="29.7374" fill="#7AE8D4"/>
<line x1="49.2169" y1="180.905" x2="688.572" y2="91.6926" stroke="#7AE8D4" stroke-opacity="0.74" stroke-width="5"/>
<line x1="36.8421" y1="201.112" x2="418.473" y2="592.655" stroke="#7AE8D4" stroke-opacity="0.74" stroke-width="6"/>
<path d="M491.375 248.55L457.7 357H439.475L415.775 282.9C415.125 281.1 414.525 278.9 413.975 276.3C413.675 277.55 413.375 278.725 413.075 279.825C412.775 280.925 412.45 281.95 412.1 282.9L388.175 357H369.875L336.275 248.55H353.15C354.9 248.55 356.35 248.975 357.5 249.825C358.7 250.625 359.5 251.725 359.9 253.125L378.35 318C378.75 319.6 379.125 321.35 379.475 323.25C379.875 325.1 380.275 327.05 380.675 329.1C381.075 327 381.5 325.025 381.95 323.175C382.45 321.325 382.975 319.6 383.525 318L404.825 253.125C405.225 251.975 406 250.925 407.15 249.975C408.35 249.025 409.8 248.55 411.5 248.55H417.425C419.175 248.55 420.6 248.975 421.7 249.825C422.8 250.675 423.625 251.775 424.175 253.125L445.4 318C446.45 321.1 447.4 324.675 448.25 328.725C448.9 324.775 449.625 321.2 450.425 318L468.875 253.125C469.175 251.875 469.925 250.8 471.125 249.9C472.375 249 473.85 248.55 475.55 248.55H491.375ZM596.117 248.55V357H575.867V309.6H524.942V357H504.692V248.55H524.942V295.2H575.867V248.55H596.117ZM640.518 357H620.268V248.55H640.518V357ZM728.325 340.35V357H664.8V248.55H684.975V340.35H728.325ZM762.979 264.6V294.675H800.929V310.2H762.979V340.875H811.129V357H742.729V248.55H811.129V264.6H762.979ZM892.534 340.35V357H829.009V248.55H849.184V340.35H892.534ZM1006.55 302.775C1006.55 310.725 1005.23 318.1 1002.58 324.9C999.98 331.65 996.28 337.5 991.48 342.45C986.68 347.4 980.905 351.275 974.155 354.075C967.405 356.825 959.905 358.2 951.655 358.2C943.455 358.2 935.98 356.825 929.23 354.075C922.48 351.275 916.68 347.4 911.83 342.45C907.03 337.5 903.305 331.65 900.655 324.9C898.005 318.1 896.68 310.725 896.68 302.775C896.68 294.825 898.005 287.475 900.655 280.725C903.305 273.925 907.03 268.05 911.83 263.1C916.68 258.15 922.48 254.3 929.23 251.55C935.98 248.75 943.455 247.35 951.655 247.35C957.155 247.35 962.33 248 967.18 249.3C972.03 250.55 976.48 252.35 980.53 254.7C984.58 257 988.205 259.825 991.405 263.175C994.655 266.475 997.405 270.175 999.655 274.275C1001.9 278.375 1003.6 282.825 1004.75 287.625C1005.95 292.425 1006.55 297.475 1006.55 302.775ZM985.93 302.775C985.93 296.825 985.13 291.5 983.53 286.8C981.93 282.05 979.655 278.025 976.705 274.725C973.755 271.425 970.155 268.9 965.905 267.15C961.705 265.4 956.955 264.525 951.655 264.525C946.355 264.525 941.58 265.4 937.33 267.15C933.13 268.9 929.53 271.425 926.53 274.725C923.58 278.025 921.305 282.05 919.705 286.8C918.105 291.5 917.305 296.825 917.305 302.775C917.305 308.725 918.105 314.075 919.705 318.825C921.305 323.525 923.58 327.525 926.53 330.825C929.53 334.075 933.13 336.575 937.33 338.325C941.58 340.075 946.355 340.95 951.655 340.95C956.955 340.95 961.705 340.075 965.905 338.325C970.155 336.575 973.755 334.075 976.705 330.825C979.655 327.525 981.93 323.525 983.53 318.825C985.13 314.075 985.93 308.725 985.93 302.775ZM1127.7 302.775C1127.7 310.725 1126.37 318.1 1123.72 324.9C1121.12 331.65 1117.42 337.5 1112.62 342.45C1107.82 347.4 1102.05 351.275 1095.3 354.075C1088.55 356.825 1081.05 358.2 1072.8 358.2C1064.6 358.2 1057.12 356.825 1050.37 354.075C1043.62 351.275 1037.82 347.4 1032.97 342.45C1028.17 337.5 1024.45 331.65 1021.8 324.9C1019.15 318.1 1017.82 310.725 1017.82 302.775C1017.82 294.825 1019.15 287.475 1021.8 280.725C1024.45 273.925 1028.17 268.05 1032.97 263.1C1037.82 258.15 1043.62 254.3 1050.37 251.55C1057.12 248.75 1064.6 247.35 1072.8 247.35C1078.3 247.35 1083.47 248 1088.32 249.3C1093.17 250.55 1097.62 252.35 1101.67 254.7C1105.72 257 1109.35 259.825 1112.55 263.175C1115.8 266.475 1118.55 270.175 1120.8 274.275C1123.05 278.375 1124.75 282.825 1125.9 287.625C1127.1 292.425 1127.7 297.475 1127.7 302.775ZM1107.07 302.775C1107.07 296.825 1106.27 291.5 1104.67 286.8C1103.07 282.05 1100.8 278.025 1097.85 274.725C1094.9 271.425 1091.3 268.9 1087.05 267.15C1082.85 265.4 1078.1 264.525 1072.8 264.525C1067.5 264.525 1062.72 265.4 1058.47 267.15C1054.27 268.9 1050.67 271.425 1047.67 274.725C1044.72 278.025 1042.45 282.05 1040.85 286.8C1039.25 291.5 1038.45 296.825 1038.45 302.775C1038.45 308.725 1039.25 314.075 1040.85 318.825C1042.45 323.525 1044.72 327.525 1047.67 330.825C1050.67 334.075 1054.27 336.575 1058.47 338.325C1062.72 340.075 1067.5 340.95 1072.8 340.95C1078.1 340.95 1082.85 340.075 1087.05 338.325C1091.3 336.575 1094.9 334.075 1097.85 330.825C1100.8 327.525 1103.07 323.525 1104.67 318.825C1106.27 314.075 1107.07 308.725 1107.07 302.775ZM1180.66 303.075C1184.36 303.075 1187.59 302.625 1190.34 301.725C1193.09 300.775 1195.36 299.45 1197.16 297.75C1199.01 296 1200.39 293.9 1201.29 291.45C1202.19 288.95 1202.64 286.175 1202.64 283.125C1202.64 280.225 1202.19 277.6 1201.29 275.25C1200.39 272.9 1199.04 270.9 1197.24 269.25C1195.44 267.6 1193.16 266.35 1190.41 265.5C1187.66 264.6 1184.41 264.15 1180.66 264.15H1165.59V303.075H1180.66ZM1180.66 248.55C1187.91 248.55 1194.19 249.4 1199.49 251.1C1204.79 252.8 1209.16 255.175 1212.61 258.225C1216.06 261.275 1218.61 264.925 1220.26 269.175C1221.96 273.425 1222.81 278.075 1222.81 283.125C1222.81 288.375 1221.94 293.2 1220.19 297.6C1218.44 301.95 1215.81 305.7 1212.31 308.85C1208.81 312 1204.41 314.45 1199.11 316.2C1193.86 317.95 1187.71 318.825 1180.66 318.825H1165.59V357H1145.41V248.55H1180.66Z" fill="black"/>
<defs>
<linearGradient id="paint0_linear" x1="396.499" y1="0" x2="396.499" y2="495.624" gradientUnits="userSpaceOnUse">
<stop stop-color="#FF7566"/>
<stop offset="1" stop-color="#FF7566" stop-opacity="0.63"/>
</linearGradient>
</defs>
</svg>
